<svg width="50" height="50" viewBox="0 0 50 50" fill="none" xmlns="http://www.w3.org/2000/svg">
<path d="M45.8307 34.8752V9.72936C45.8307 7.22936 43.7891 5.37519 41.3099 5.58352H41.1849C36.8099 5.95852 30.1641 8.18769 26.4557 10.521L26.1016 10.7502C25.4974 11.1252 24.4974 11.1252 23.8932 10.7502L23.3724 10.4377C19.6641 8.12519 13.0391 5.91686 8.66406 5.56269C6.1849 5.35436 4.16406 7.22936 4.16406 9.70852V34.8752C4.16406 36.8752 5.78906 38.7502 7.78906 39.0002L8.39323 39.0835C12.9141 39.6877 19.8932 41.9794 23.8932 44.1669L23.9766 44.2085C24.5391 44.521 25.4349 44.521 25.9766 44.2085C29.9766 42.0002 36.9766 39.6877 41.5182 39.0835L42.2057 39.0002C44.2057 38.7502 45.8307 36.8752 45.8307 34.8752Z" stroke="#17191C" stroke-width="1.5" stroke-linecap="round" stroke-linejoin="round"/>
<path d="M25 11.4375V42.6875" stroke="#17191C" stroke-width="1.5" stroke-linecap="round" stroke-linejoin="round"/>
<path d="M16.1484 17.6875H11.4609" stroke="#17191C" stroke-width="1.5" stroke-linecap="round" stroke-linejoin="round"/>
<path d="M17.7109 23.9375H11.4609" stroke="#17191C" stroke-width="1.5" stroke-linecap="round" stroke-linejoin="round"/>
</svg>
