<svg width="50" height="50" viewBox="0 0 50 50" fill="none" xmlns="http://www.w3.org/2000/svg">
<path d="M37.5859 28.2298C36.7109 29.084 36.2109 30.3131 36.3359 31.6256C36.5234 33.8756 38.586 35.5215 40.836 35.5215H44.7943V38.0006C44.7943 42.3131 41.2735 45.834 36.961 45.834H15.9193C17.6484 44.3131 18.7526 42.084 18.7526 39.584C18.7526 34.9798 15.0234 31.2507 10.4193 31.2507C8.46094 31.2507 6.64844 31.9382 5.21094 33.084V23.9798C5.21094 19.6673 8.73176 16.1465 13.0443 16.1465H36.961C41.2735 16.1465 44.7943 19.6673 44.7943 23.9798V26.9798H40.5859C39.4193 26.9798 38.3568 27.4381 37.5859 28.2298Z" stroke="#17191C" stroke-width="1.5" stroke-linecap="round" stroke-linejoin="round"/>
<path d="M5.21094 23.9795V16.3337C5.21094 13.8546 6.73176 11.6462 9.04426 10.7712L25.5859 4.52115C28.1693 3.56282 30.9401 5.45871 30.9401 8.22955V16.1462" stroke="#17191C" stroke-width="1.5" stroke-linecap="round" stroke-linejoin="round"/>
<path d="M46.9982 29.1044V33.3962C46.9982 34.542 46.0815 35.4794 44.9148 35.5211H40.8315C38.5815 35.5211 36.519 33.8753 36.3315 31.6253C36.2065 30.3128 36.7065 29.0836 37.5815 28.2294C38.3523 27.4378 39.4148 26.9795 40.5815 26.9795H44.9148C46.0815 27.0212 46.9982 27.9586 46.9982 29.1044Z" stroke="#17191C" stroke-width="1.5" stroke-linecap="round" stroke-linejoin="round"/>
<path d="M14.5859 25H29.1693" stroke="#17191C" stroke-width="1.5" stroke-linecap="round" stroke-linejoin="round"/>
<path d="M18.7526 39.5833C18.7526 42.0833 17.6484 44.3125 15.9193 45.8333C14.4401 47.125 12.5234 47.9167 10.4193 47.9167C5.8151 47.9167 2.08594 44.1875 2.08594 39.5833C2.08594 36.9583 3.29427 34.6042 5.21094 33.0833C6.64844 31.9375 8.46094 31.25 10.4193 31.25C15.0234 31.25 18.7526 34.9792 18.7526 39.5833Z" stroke="#17191C" stroke-width="1.5" stroke-miterlimit="10" stroke-linecap="round" stroke-linejoin="round"/>
<path d="M10.9401 36.9795V40.1045L8.33594 41.667" stroke="#17191C" stroke-width="1.5" stroke-miterlimit="10" stroke-linecap="round" stroke-linejoin="round"/>
</svg>
