<svg width="50" height="50" viewBox="0 0 50 50" fill="none" xmlns="http://www.w3.org/2000/svg">
<path d="M37.5 39.2916H35.9167C34.25 39.2916 32.6667 39.9374 31.5 41.1041L27.9375 44.6251C26.3125 46.2292 23.6667 46.2292 22.0417 44.6251L18.4792 41.1041C17.3125 39.9374 15.7083 39.2916 14.0625 39.2916H12.5C9.04167 39.2916 6.25 36.5208 6.25 33.1042V10.3749C6.25 6.95827 9.04167 4.1875 12.5 4.1875H37.5C40.9583 4.1875 43.75 6.95827 43.75 10.3749V33.1042C43.75 36.5 40.9583 39.2916 37.5 39.2916Z" stroke="#17191C" stroke-width="1.5" stroke-miterlimit="10" stroke-linecap="round" stroke-linejoin="round"/>
<path d="M14.5859 19.0835C14.5859 17.146 16.1693 15.5625 18.1068 15.5625C20.0443 15.5625 21.6276 17.146 21.6276 19.0835C21.6276 23.0001 16.0651 23.4168 14.8359 27.146C14.5859 27.9168 15.2318 28.6876 16.0443 28.6876H21.6276" stroke="#17191C" stroke-width="1.5" stroke-linecap="round" stroke-linejoin="round"/>
<path d="M33.4167 28.6671V16.7714C33.4167 16.2297 33.0625 15.7504 32.5417 15.6046C32.0208 15.4588 31.4583 15.6671 31.1667 16.1254C29.6667 18.5421 28.0417 21.2921 26.625 23.7088C26.3958 24.1046 26.3958 24.6255 26.625 25.0213C26.8542 25.4171 27.2917 25.667 27.7708 25.667H35.4167" stroke="#17191C" stroke-width="1.5" stroke-linecap="round" stroke-linejoin="round"/>
</svg>
