<svg xmlns="http://www.w3.org/2000/svg" width="50" height="50" viewBox="0 0 50 50" fill="none">
<path d="M33.3333 4.16699H16.6667C9.375 4.16699 6.25 8.33366 6.25 14.5837V35.417C6.25 41.667 9.375 45.8337 16.6667 45.8337H33.3333C40.625 45.8337 43.75 41.667 43.75 35.417V14.5837C43.75 8.33366 40.625 4.16699 33.3333 4.16699ZM21.9375 34.3128C22.5417 34.917 22.5417 35.917 21.9375 36.5212C21.625 36.8337 21.2292 36.9795 20.8333 36.9795C20.4375 36.9795 20.0417 36.8337 19.7292 36.5212L15.5625 32.3545C14.9583 31.7503 14.9583 30.7503 15.5625 30.1462L19.7292 25.9795C20.3333 25.3753 21.3333 25.3753 21.9375 25.9795C22.5417 26.5837 22.5417 27.5837 21.9375 28.1878L18.875 31.2503L21.9375 34.3128ZM34.4375 32.3545L30.2708 36.5212C29.9583 36.8337 29.5625 36.9795 29.1667 36.9795C28.7708 36.9795 28.375 36.8337 28.0625 36.5212C27.4583 35.917 27.4583 34.917 28.0625 34.3128L31.125 31.2503L28.0625 28.1878C27.4583 27.5837 27.4583 26.5837 28.0625 25.9795C28.6667 25.3753 29.6667 25.3753 30.2708 25.9795L34.4375 30.1462C35.0417 30.7503 35.0417 31.7503 34.4375 32.3545ZM38.5417 19.2712H34.375C31.2083 19.2712 28.6458 16.7087 28.6458 13.542V9.37533C28.6458 8.52116 29.3542 7.81283 30.2083 7.81283C31.0625 7.81283 31.7708 8.52116 31.7708 9.37533V13.542C31.7708 14.9795 32.9375 16.1462 34.375 16.1462H38.5417C39.3958 16.1462 40.1042 16.8545 40.1042 17.7087C40.1042 18.5628 39.3958 19.2712 38.5417 19.2712Z" fill="white" style="&#10;    /* fill: #000; */&#10;    stroke: #000;&#10;"/>
</svg>