<svg width="50" height="50" viewBox="0 0 50 50" fill="none" xmlns="http://www.w3.org/2000/svg">
<path d="M5.375 18.0635C6.66667 14.3968 8.95836 11.2093 11.9167 8.81348" stroke="#292D32" stroke-width="1.5" stroke-linecap="round" stroke-linejoin="round"/>
<path d="M4.16406 25C4.16406 27.4375 4.60153 29.7709 5.37237 31.9375" stroke="#292D32" stroke-width="1.5" stroke-linecap="round" stroke-linejoin="round"/>
<path d="M18.9375 44.9382C20.8542 45.5215 22.8958 45.834 25 45.834C36.5 45.834 45.8333 36.5007 45.8333 25.0007C45.8333 23.7507 45.7083 22.5215 45.5 21.334" stroke="#292D32" stroke-width="1.5" stroke-linecap="round" stroke-linejoin="round"/>
<path d="M11.9141 41.1465C10.9349 40.3548 9.9974 39.4798 9.16406 38.5215" stroke="#292D32" stroke-width="1.5" stroke-linecap="round" stroke-linejoin="round"/>
<path d="M42.1667 13.2087C38.4167 7.75038 32.125 4.16699 25 4.16699C22.8958 4.16699 20.8542 4.47948 18.9375 5.06281" stroke="#292D32" stroke-width="1.5" stroke-linecap="round" stroke-linejoin="round"/>
<path d="M17.8984 35.6445C19.7279 35.6445 21.2109 34.1615 21.2109 32.3321C21.2109 30.5026 19.7279 29.0195 17.8984 29.0195C16.069 29.0195 14.5859 30.5026 14.5859 32.3321C14.5859 34.1615 16.069 35.6445 17.8984 35.6445Z" stroke="#292D32" stroke-width="1.5" stroke-linecap="round" stroke-linejoin="round"/>
<path d="M33.3333 30.1247V17.1872C33.3333 14.4372 31.6041 14.0413 29.8541 14.5204L23.2291 16.3331C22.0208 16.6664 21.1875 17.6038 21.1875 18.9997V21.3121V22.8538V32.333" stroke="#292D32" stroke-width="1.5" stroke-linecap="round" stroke-linejoin="round"/>
<path d="M30.0234 33.4394C31.8529 33.4394 33.3359 31.9565 33.3359 30.127C33.3359 28.2976 31.8529 26.8145 30.0234 26.8145C28.194 26.8145 26.7109 28.2976 26.7109 30.127C26.7109 31.9565 28.194 33.4394 30.0234 33.4394Z" stroke="#292D32" stroke-width="1.5" stroke-linecap="round" stroke-linejoin="round"/>
<path d="M21.2109 22.4161L33.336 19.1035" stroke="#292D32" stroke-width="1.5" stroke-linecap="round" stroke-linejoin="round"/>
</svg>
