<svg width="50" height="50" viewBox="0 0 50 50" fill="none" xmlns="http://www.w3.org/2000/svg">
<path d="M20.0026 41.6663H30.0026C38.3359 41.6663 41.6693 38.333 41.6693 29.9997V19.9997C41.6693 11.6663 38.3359 8.33301 30.0026 8.33301H20.0026C11.6693 8.33301 8.33594 11.6663 8.33594 19.9997V29.9997C8.33594 38.333 11.6693 41.6663 20.0026 41.6663Z" stroke="#292D32" stroke-width="1.5" stroke-linecap="round" stroke-linejoin="round"/>
<path d="M21.8776 35.4163H28.1276C33.3359 35.4163 35.4193 33.333 35.4193 28.1247V21.8747C35.4193 16.6663 33.3359 14.583 28.1276 14.583H21.8776C16.6693 14.583 14.5859 16.6663 14.5859 21.8747V28.1247C14.5859 33.333 16.6693 35.4163 21.8776 35.4163Z" stroke="#292D32" stroke-width="1.5" stroke-linecap="round" stroke-linejoin="round"/>
<path d="M16.6875 8.33366V4.16699" stroke="#292D32" stroke-width="1.5" stroke-linecap="round" stroke-linejoin="round"/>
<path d="M25 8.33366V4.16699" stroke="#292D32" stroke-width="1.5" stroke-linecap="round" stroke-linejoin="round"/>
<path d="M33.3359 8.33366V4.16699" stroke="#292D32" stroke-width="1.5" stroke-linecap="round" stroke-linejoin="round"/>
<path d="M41.6641 16.667H45.8307" stroke="#292D32" stroke-width="1.5" stroke-linecap="round" stroke-linejoin="round"/>
<path d="M41.6641 25H45.8307" stroke="#292D32" stroke-width="1.5" stroke-linecap="round" stroke-linejoin="round"/>
<path d="M41.6641 33.333H45.8307" stroke="#292D32" stroke-width="1.5" stroke-linecap="round" stroke-linejoin="round"/>
<path d="M33.3359 41.667V45.8337" stroke="#292D32" stroke-width="1.5" stroke-linecap="round" stroke-linejoin="round"/>
<path d="M25.0234 41.667V45.8337" stroke="#292D32" stroke-width="1.5" stroke-linecap="round" stroke-linejoin="round"/>
<path d="M16.6875 41.667V45.8337" stroke="#292D32" stroke-width="1.5" stroke-linecap="round" stroke-linejoin="round"/>
<path d="M4.16406 16.667H8.33073" stroke="#292D32" stroke-width="1.5" stroke-linecap="round" stroke-linejoin="round"/>
<path d="M4.16406 25H8.33073" stroke="#292D32" stroke-width="1.5" stroke-linecap="round" stroke-linejoin="round"/>
<path d="M4.16406 33.333H8.33073" stroke="#292D32" stroke-width="1.5" stroke-linecap="round" stroke-linejoin="round"/>
</svg>
