<svg width="50" height="50" viewBox="0 0 50 50" fill="none" xmlns="http://www.w3.org/2000/svg">
<g clip-path="url(#clip0_91_28251)">
<path d="M22.8516 4.16699H18.6849C8.26823 4.16699 4.10156 8.33366 4.10156 18.7503V31.2503C4.10156 41.667 8.26823 45.8337 18.6849 45.8337H31.1849C41.6016 45.8337 45.7682 41.667 45.7682 31.2503V27.0837" stroke="#292D32" stroke-width="1.5" stroke-linecap="round" stroke-linejoin="round"/>
<path d="M45.5807 7.41745C43.0182 13.8133 36.5807 22.5216 31.2057 26.8341L27.9141 29.4591C27.4974 29.7716 27.0807 30.0216 26.6016 30.2091C26.6016 29.8966 26.5807 29.5841 26.5391 29.2508C26.3516 27.855 25.7266 26.5425 24.6016 25.4383C23.4557 24.2925 22.0807 23.6466 20.6641 23.4591C20.3307 23.4383 19.9974 23.4175 19.6641 23.4383C19.8516 22.9175 20.1224 22.4383 20.4766 22.0425L23.1016 18.7508C27.4141 13.3758 36.1432 6.89662 42.5182 4.33412C43.4974 3.95912 44.4557 4.25078 45.0599 4.85495C45.6849 5.47995 45.9766 6.43828 45.5807 7.41745Z" stroke="#292D32" stroke-width="1.5" stroke-linecap="round" stroke-linejoin="round"/>
<path d="M26.6158 30.1886C26.6158 32.022 25.9074 33.772 24.5949 35.1053C23.5741 36.1261 22.1991 36.8345 20.5533 37.0428L16.4491 37.4803C14.2199 37.7303 12.3033 35.8345 12.5533 33.5636L12.9908 29.4595C13.3866 25.8136 16.4283 23.4803 19.6783 23.4178C20.0116 23.397 20.3449 23.4178 20.6783 23.4386C22.0949 23.6261 23.4699 24.272 24.6158 25.4178C25.7408 26.5428 26.3658 27.8345 26.5533 29.2303C26.5949 29.5636 26.6158 29.897 26.6158 30.1886Z" stroke="#292D32" stroke-width="1.5" stroke-linecap="round" stroke-linejoin="round"/>
<path d="M32.9583 24.9593C32.9583 20.6051 29.4375 17.0635 25.0625 17.0635" stroke="#292D32" stroke-width="1.5" stroke-linecap="round" stroke-linejoin="round"/>
</g>
<defs>
<clipPath id="clip0_91_28251">
<rect width="50" height="50" fill="white"/>
</clipPath>
</defs>
</svg>
