<svg width="50" height="50" viewBox="0 0 50 50" fill="none" xmlns="http://www.w3.org/2000/svg">
<path d="M26.1016 42.5413H12.9349C6.35156 42.5413 4.16406 38.1663 4.16406 33.7705V16.2288C4.16406 9.64551 6.35156 7.45801 12.9349 7.45801H26.1016C32.6849 7.45801 34.8724 9.64551 34.8724 16.2288V33.7705C34.8724 40.3538 32.6641 42.5413 26.1016 42.5413Z" stroke="#292D32" stroke-width="1.5" stroke-linecap="round" stroke-linejoin="round"/>
<path d="M40.6667 35.6253L34.875 31.5628V18.4169L40.6667 14.3544C43.5 12.3753 45.8333 13.5836 45.8333 17.0628V32.9378C45.8333 36.4169 43.5 37.6253 40.6667 35.6253Z" stroke="#292D32" stroke-width="1.5" stroke-linecap="round" stroke-linejoin="round"/>
<path d="M23.9609 22.917C25.6868 22.917 27.0859 21.5179 27.0859 19.792C27.0859 18.0661 25.6868 16.667 23.9609 16.667C22.235 16.667 20.8359 18.0661 20.8359 19.792C20.8359 21.5179 22.235 22.917 23.9609 22.917Z" stroke="#292D32" stroke-width="1.5" stroke-linecap="round" stroke-linejoin="round"/>
</svg>
