<svg width="50" height="50" viewBox="0 0 50 50" fill="none" xmlns="http://www.w3.org/2000/svg">
<path d="M41.6693 17.1878V37.5003C41.6693 43.7503 37.9401 45.8337 33.3359 45.8337H16.6693C12.0651 45.8337 8.33594 43.7503 8.33594 37.5003V17.1878C8.33594 10.417 12.0651 8.85449 16.6693 8.85449C16.6693 10.1462 17.19 11.3128 18.0442 12.167C18.8984 13.0212 20.0651 13.542 21.3568 13.542H28.6484C31.2318 13.542 33.3359 11.4378 33.3359 8.85449C37.9401 8.85449 41.6693 10.417 41.6693 17.1878Z" stroke="#292D32" stroke-width="1.5" stroke-linecap="round" stroke-linejoin="round"/>
<path d="M33.3307 8.85449C33.3307 11.4378 31.2266 13.542 28.6432 13.542H21.3516C20.0599 13.542 18.8932 13.0212 18.039 12.167C17.1848 11.3128 16.6641 10.1462 16.6641 8.85449C16.6641 6.27116 18.7682 4.16699 21.3516 4.16699H28.6432C29.9349 4.16699 31.1016 4.68783 31.9558 5.542C32.81 6.39617 33.3307 7.56283 33.3307 8.85449Z" stroke="#292D32" stroke-width="1.5" stroke-linecap="round" stroke-linejoin="round"/>
<path d="M16.6641 27.083H24.9974" stroke="#292D32" stroke-width="1.5" stroke-linecap="round" stroke-linejoin="round"/>
<path d="M16.6641 35.417H33.3307" stroke="#292D32" stroke-width="1.5" stroke-linecap="round" stroke-linejoin="round"/>
</svg>
