<svg width="48" height="48" viewBox="0 0 48 48" fill="none" xmlns="http://www.w3.org/2000/svg">
<path d="M8.52344 22.0399V31.9799C8.52344 35.6199 8.52344 35.6199 11.9634 37.9399L21.4234 43.3999C22.8434 44.2199 25.1634 44.2199 26.5834 43.3999L36.0434 37.9399C39.4834 35.6199 39.4834 35.6199 39.4834 31.9799V22.0399C39.4834 18.3999 39.4834 18.3999 36.0434 16.0799L26.5834 10.6199C25.1634 9.79988 22.8434 9.79988 21.4234 10.6199L11.9634 16.0799C8.52344 18.3999 8.52344 18.3999 8.52344 22.0399Z" stroke="#292D32" stroke-width="1.5" stroke-linecap="round" stroke-linejoin="round"/>
<path d="M35 15.26V10C35 6 33 4 29 4H19C15 4 13 6 13 10V15.12" stroke="#292D32" stroke-width="1.5" stroke-linecap="round" stroke-linejoin="round"/>
<path d="M25.2635 21.9799L26.4035 23.7599C26.5835 24.0399 26.9835 24.3199 27.2835 24.3999L29.3235 24.9199C30.5835 25.2399 30.9235 26.3199 30.1035 27.3199L28.7635 28.9399C28.5635 29.1999 28.4035 29.6599 28.4235 29.9799L28.5435 32.0799C28.6235 33.3799 27.7035 34.0399 26.5035 33.5599L24.5435 32.7799C24.2435 32.6599 23.7435 32.6599 23.4435 32.7799L21.4835 33.5599C20.2835 34.0399 19.3635 33.3599 19.4435 32.0799L19.5635 29.9799C19.5835 29.6599 19.4235 29.1799 19.2235 28.9399L17.8835 27.3199C17.0635 26.3199 17.4035 25.2399 18.6635 24.9199L20.7035 24.3999C21.0235 24.3199 21.4235 24.0199 21.5835 23.7599L22.7235 21.9799C23.4435 20.8999 24.5635 20.8999 25.2635 21.9799Z" stroke="#292D32" stroke-width="1.5" stroke-linecap="round" stroke-linejoin="round"/>
</svg>
