<svg width="60" height="60" viewBox="0 0 60 60" fill="none" xmlns="http://www.w3.org/2000/svg">
<path d="M57.4999 44.7746C57.5499 46.6496 57.0499 48.4246 56.1499 49.9496C55.6499 50.8496 54.9749 51.6747 54.2249 52.3497C52.4999 53.9497 50.2249 54.9247 47.6999 54.9997C44.0499 55.0747 40.8249 53.1997 39.0499 50.3247C38.0999 48.8497 37.5249 47.0747 37.4999 45.1997C37.4249 42.0497 38.8249 39.1997 41.0749 37.3247C42.7749 35.9247 44.925 35.0497 47.275 34.9997C52.8 34.8747 57.3749 39.2496 57.4999 44.7746Z" stroke="#292D32" stroke-width="1.5" stroke-miterlimit="10" stroke-linecap="round" stroke-linejoin="round"/>
<path d="M43.5996 45.075L46.1246 47.4749L51.3496 42.4248" stroke="#292D32" stroke-width="1.5" stroke-linecap="round" stroke-linejoin="round"/>
<path d="M7.9248 18.5996L29.9998 31.3746L51.9247 18.6745" stroke="#292D32" stroke-width="1.5" stroke-linecap="round" stroke-linejoin="round"/>
<path d="M30 54.0246V31.3496" stroke="#292D32" stroke-width="1.5" stroke-linecap="round" stroke-linejoin="round"/>
<path d="M54.0245 22.925V37.0751C54.0245 37.2001 54.0246 37.3 53.9996 37.425C52.2496 35.9 49.9996 35 47.4996 35C45.1496 35 42.9746 35.8251 41.2496 37.2001C38.9496 39.0251 37.4996 41.85 37.4996 45C37.4996 46.875 38.0245 48.65 38.9495 50.15C39.1745 50.55 39.4496 50.9251 39.7496 51.2751L35.1746 53.8001C32.3246 55.4001 27.6746 55.4001 24.8246 53.8001L11.4746 46.4C8.44956 44.725 5.97461 40.5251 5.97461 37.0751V22.925C5.97461 19.475 8.44956 15.2751 11.4746 13.6001L24.8246 6.2C27.6746 4.6 32.3246 4.6 35.1746 6.2L48.5246 13.6001C51.5496 15.2751 54.0245 19.475 54.0245 22.925Z" stroke="#292D32" stroke-width="1.5" stroke-linecap="round" stroke-linejoin="round"/>
</svg>
