<svg width="32" height="32" viewBox="0 0 32 32" fill="none" xmlns="http://www.w3.org/2000/svg">
<path d="M2.66406 2.66699H4.98407C6.42407 2.66699 7.5574 3.90699 7.4374 5.33366L6.33073 18.6136C6.14406 20.787 7.86405 22.6536 10.0507 22.6536H24.2507C26.1707 22.6536 27.8507 21.0803 27.9974 19.1737L28.7174 9.17367C28.8774 6.96033 27.1974 5.16032 24.9707 5.16032H7.75741" stroke="black" stroke-width="1.5" stroke-miterlimit="10" stroke-linecap="round" stroke-linejoin="round"/>
<path d="M21.6667 29.3333C22.5871 29.3333 23.3333 28.5871 23.3333 27.6667C23.3333 26.7462 22.5871 26 21.6667 26C20.7462 26 20 26.7462 20 27.6667C20 28.5871 20.7462 29.3333 21.6667 29.3333Z" stroke="black" stroke-width="1.5" stroke-miterlimit="10" stroke-linecap="round" stroke-linejoin="round"/>
<path d="M11.0026 29.3333C11.9231 29.3333 12.6693 28.5871 12.6693 27.6667C12.6693 26.7462 11.9231 26 11.0026 26C10.0821 26 9.33594 26.7462 9.33594 27.6667C9.33594 28.5871 10.0821 29.3333 11.0026 29.3333Z" stroke="black" stroke-width="1.5" stroke-miterlimit="10" stroke-linecap="round" stroke-linejoin="round"/>
<path d="M12 10.667H28" stroke="black" stroke-width="1.5" stroke-miterlimit="10" stroke-linecap="round" stroke-linejoin="round"/>
</svg>
