<svg width="60" height="60" viewBox="0 0 60 60" fill="none" xmlns="http://www.w3.org/2000/svg">
<path d="M9.97224 36.6511L6.17227 32.851C4.62227 31.301 4.62227 28.751 6.17227 27.201L9.97224 23.401C10.6222 22.751 11.1472 21.476 11.1472 20.576V15.2009C11.1472 13.0009 12.9473 11.201 15.1473 11.201H20.5222C21.4222 11.201 22.6973 10.676 23.3473 10.026L27.1472 6.22598C28.6972 4.67598 31.2473 4.67598 32.7973 6.22598L36.5973 10.026C37.2473 10.676 38.5222 11.201 39.4222 11.201H44.7973C46.9973 11.201 48.7972 13.0009 48.7972 15.2009V20.576C48.7972 21.476 49.3222 22.751 49.9722 23.401L53.7723 27.201C55.3223 28.751 55.3223 31.301 53.7723 32.851L49.9722 36.6511C49.3222 37.3011 48.7972 38.5761 48.7972 39.4761V44.8509C48.7972 47.0509 46.9973 48.8511 44.7973 48.8511H39.4222C38.5222 48.8511 37.2473 49.376 36.5973 50.026L32.7973 53.8261C31.2473 55.3761 28.6972 55.3761 27.1472 53.8261L23.3473 50.026C22.6973 49.376 21.4222 48.8511 20.5222 48.8511H15.1473C12.9473 48.8511 11.1472 47.0509 11.1472 44.8509V39.4761C11.1472 38.5511 10.6222 37.2761 9.97224 36.6511Z" stroke="#292D32" stroke-width="1.5" stroke-linecap="round" stroke-linejoin="round"/>
<path d="M22.5 37.5L37.5 22.5" stroke="#292D32" stroke-width="1.5" stroke-linecap="round" stroke-linejoin="round"/>
<path d="M36.2363 36.25H36.2587" stroke="#292D32" stroke-width="2" stroke-linecap="round" stroke-linejoin="round"/>
<path d="M23.7363 23.75H23.7587" stroke="#292D32" stroke-width="2" stroke-linecap="round" stroke-linejoin="round"/>
</svg>
