<svg width="16" height="16" viewBox="0 0 16 16" fill="none" xmlns="http://www.w3.org/2000/svg">
<path d="M6.0026 14.6663H10.0026C13.3359 14.6663 14.6693 13.333 14.6693 9.99967V5.99967C14.6693 2.66634 13.3359 1.33301 10.0026 1.33301H6.0026C2.66927 1.33301 1.33594 2.66634 1.33594 5.99967V9.99967C1.33594 13.333 2.66927 14.6663 6.0026 14.6663Z" stroke="#292D32" stroke-linecap="round" stroke-linejoin="round"/>
<path d="M4.66406 5.5C5.33073 6.16667 6.4174 6.16667 7.09073 5.5" stroke="#292D32" stroke-miterlimit="10" stroke-linecap="round" stroke-linejoin="round"/>
<path d="M8.90625 5.5C9.57292 6.16667 10.6596 6.16667 11.3329 5.5" stroke="#292D32" stroke-miterlimit="10" stroke-linecap="round" stroke-linejoin="round"/>
<path d="M5.6 8.66699H10.4C10.7333 8.66699 11 8.93366 11 9.26699C11 10.927 9.66 12.267 8 12.267C6.34 12.267 5 10.927 5 9.26699C5 8.93366 5.26667 8.66699 5.6 8.66699Z" stroke="#292D32" stroke-miterlimit="10" stroke-linecap="round" stroke-linejoin="round"/>
</svg>
