<svg width="60" height="60" viewBox="0 0 60 60" fill="none" xmlns="http://www.w3.org/2000/svg">
<path d="M22.5 55H37.5C50 55 55 50 55 37.5V22.5C55 10 50 5 37.5 5H22.5C10 5 5 10 5 22.5V37.5C5 50 10 55 22.5 55Z" stroke="#292D32" stroke-width="1.5" stroke-linecap="round" stroke-linejoin="round"/>
<path d="M5 32.4996H14.4C16.3 32.4996 18.025 33.5746 18.875 35.2746L21.1 39.7496C22.5 42.4996 25 42.4996 25.6 42.4996H34.425C36.325 42.4996 38.05 41.4246 38.9 39.7246L41.125 35.2496C41.975 33.5496 43.7 32.4746 45.6 32.4746H54.95" stroke="#292D32" stroke-width="1.5" stroke-linecap="round" stroke-linejoin="round"/>
<path d="M25.8496 17.5H34.1746" stroke="#292D32" stroke-width="1.5" stroke-linecap="round" stroke-linejoin="round"/>
<path d="M23.75 25H36.25" stroke="#292D32" stroke-width="1.5" stroke-linecap="round" stroke-linejoin="round"/>
</svg>
