<svg width="32" height="32" viewBox="0 0 32 32" fill="none" xmlns="http://www.w3.org/2000/svg">
<path d="M27.3307 15.067V9.387C27.3307 4.01367 26.0774 2.66699 21.0374 2.66699H10.9574C5.9174 2.66699 4.66406 4.01367 4.66406 9.387V24.4003C4.66406 27.947 6.61074 28.787 8.97074 26.2537L8.98405 26.2403C10.0774 25.0803 11.744 25.1736 12.6907 26.4403L14.0374 28.2403" stroke="#292D32" stroke-width="1.5" stroke-linecap="round" stroke-linejoin="round"/>
<path d="M10.6641 9.33301H21.3307" stroke="#292D32" stroke-width="1.5" stroke-linecap="round" stroke-linejoin="round"/>
<path d="M12 14.667H20" stroke="#292D32" stroke-width="1.5" stroke-linecap="round" stroke-linejoin="round"/>
<path d="M24.2839 19.6937L19.564 24.4137C19.3773 24.6004 19.2039 24.947 19.1639 25.2004L18.9106 27.0004C18.8173 27.6537 19.2706 28.1071 19.924 28.0137L21.724 27.7604C21.9773 27.7204 22.3373 27.547 22.5106 27.3604L27.2306 22.6404C28.044 21.8271 28.4306 20.8804 27.2306 19.6804C26.044 18.4937 25.0973 18.8804 24.2839 19.6937Z" stroke="#292D32" stroke-width="1.5" stroke-miterlimit="10" stroke-linecap="round" stroke-linejoin="round"/>
<path d="M23.6016 20.374C24.0016 21.814 25.1216 22.934 26.5616 23.334" stroke="#292D32" stroke-width="1.5" stroke-miterlimit="10" stroke-linecap="round" stroke-linejoin="round"/>
</svg>
