<svg width="32" height="32" viewBox="0 0 32 32" fill="none" xmlns="http://www.w3.org/2000/svg">
<path d="M16 8.58691V13.0269" stroke="black" stroke-width="1.5" stroke-miterlimit="10" stroke-linecap="round"/>
<path d="M16.0304 2.66699C11.1238 2.66699 7.15044 6.64033 7.15044 11.547V14.347C7.15044 15.2537 6.7771 16.6137 6.31044 17.387L4.6171 20.2137C3.5771 21.9603 4.2971 23.907 6.2171 24.547C12.5904 26.667 19.4838 26.667 25.8571 24.547C27.6571 23.947 28.4304 21.8403 27.4571 20.2137L25.7638 17.387C25.2971 16.6137 24.9238 15.2403 24.9238 14.347V11.547C24.9104 6.66699 20.9104 2.66699 16.0304 2.66699Z" stroke="black" stroke-width="1.5" stroke-miterlimit="10" stroke-linecap="round"/>
<path d="M20.4425 25.0938C20.4425 27.5338 18.4425 29.5338 16.0025 29.5338C14.7892 29.5338 13.6692 29.0271 12.8692 28.2271C12.0692 27.4271 11.5625 26.3071 11.5625 25.0938" stroke="black" stroke-width="1.5" stroke-miterlimit="10"/>
</svg>
