<svg width="32" height="33" viewBox="0 0 32 33" fill="none" xmlns="http://www.w3.org/2000/svg">
<path d="M5.56051 20.9001L11.6005 26.9401C14.0805 29.4201 18.1072 29.4201 20.6005 26.9401L26.4538 21.0867C28.9338 18.6067 28.9338 14.5801 26.4538 12.0867L20.4005 6.06007C19.1338 4.7934 17.3872 4.1134 15.6005 4.20673L8.93384 4.52673C6.26717 4.64673 4.14717 6.76673 4.01384 9.42007L3.69384 16.0867C3.61384 17.8867 4.29384 19.6334 5.56051 20.9001Z" stroke="#292D32" stroke-linecap="round" stroke-linejoin="round"/>
<path d="M12.6693 16.4997C14.5102 16.4997 16.0026 15.0073 16.0026 13.1663C16.0026 11.3254 14.5102 9.83301 12.6693 9.83301C10.8283 9.83301 9.33594 11.3254 9.33594 13.1663C9.33594 15.0073 10.8283 16.4997 12.6693 16.4997Z" stroke="#292D32" stroke-linecap="round"/>
</svg>
