<svg width="18" height="18" viewBox="0 0 18 18" fill="none" xmlns="http://www.w3.org/2000/svg">
<path d="M15.4198 2.50531C15.3111 2.43014 15.1846 2.385 15.0529 2.37446C14.9212 2.36392 14.789 2.38836 14.6698 2.44531L1.9198 8.44531C1.78985 8.50718 1.68044 8.60513 1.60464 8.72748C1.52883 8.84983 1.48984 8.9914 1.4923 9.13531C1.49468 9.27913 1.53837 9.41923 1.61816 9.53891C1.69794 9.65858 1.81046 9.7528 1.9423 9.81031L5.9998 11.5878V16.6278L10.3798 13.5003L13.9498 15.0603C14.0435 15.1048 14.146 15.1279 14.2498 15.1278C14.3877 15.1269 14.5226 15.0879 14.6398 15.0153C14.7431 14.9528 14.8297 14.8663 14.8924 14.7632C14.955 14.66 14.9919 14.5433 14.9998 14.4228L15.7498 3.17281C15.7577 3.04245 15.7314 2.91229 15.6735 2.79522C15.6156 2.67814 15.5282 2.57821 15.4198 2.50531ZM13.5748 13.2603L9.6223 11.5278L11.9998 6.87781L6.2623 10.0653L4.0648 9.09781L14.1673 4.34281L13.5748 13.2603Z" fill="white"/>
</svg>
