<svg width="60" height="60" viewBox="0 0 60 60" fill="none" xmlns="http://www.w3.org/2000/svg">
<path d="M42.4004 15.4248C47.4004 18.8998 50.8504 24.4248 51.5504 30.7998" stroke="#292D32" stroke-width="1.5" stroke-linecap="round" stroke-linejoin="round"/>
<path d="M8.72461 30.9248C9.37461 24.5748 12.7746 19.0498 17.7246 15.5498" stroke="#292D32" stroke-width="1.5" stroke-linecap="round" stroke-linejoin="round"/>
<path d="M20.4746 52.3496C23.3746 53.8246 26.6746 54.6496 30.1496 54.6496C33.4996 54.6496 36.6496 53.8996 39.4746 52.5246" stroke="#292D32" stroke-width="1.5" stroke-linecap="round" stroke-linejoin="round"/>
<path d="M30.1492 19.2496C33.9876 19.2496 37.0992 16.138 37.0992 12.2996C37.0992 8.46123 33.9876 5.34961 30.1492 5.34961C26.3108 5.34961 23.1992 8.46123 23.1992 12.2996C23.1992 16.138 26.3108 19.2496 30.1492 19.2496Z" stroke="#292D32" stroke-width="1.5" stroke-linecap="round" stroke-linejoin="round"/>
<path d="M12.075 49.8004C15.9134 49.8004 19.025 46.6888 19.025 42.8504C19.025 39.012 15.9134 35.9004 12.075 35.9004C8.23662 35.9004 5.125 39.012 5.125 42.8504C5.125 46.6888 8.23662 49.8004 12.075 49.8004Z" stroke="#292D32" stroke-width="1.5" stroke-linecap="round" stroke-linejoin="round"/>
<path d="M47.9246 49.8004C51.763 49.8004 54.8746 46.6888 54.8746 42.8504C54.8746 39.012 51.763 35.9004 47.9246 35.9004C44.0862 35.9004 40.9746 39.012 40.9746 42.8504C40.9746 46.6888 44.0862 49.8004 47.9246 49.8004Z" stroke="#292D32" stroke-width="1.5" stroke-linecap="round" stroke-linejoin="round"/>
</svg>
