<svg width="32" height="33" viewBox="0 0 32 33" fill="none" xmlns="http://www.w3.org/2000/svg">
<path d="M18.3105 5.17953L20.6571 9.87287C20.9771 10.5262 21.8305 11.1529 22.5505 11.2729L26.8038 11.9795C29.5238 12.4329 30.1638 14.4062 28.2038 16.3529L24.8971 19.6595C24.3371 20.2195 24.0304 21.2995 24.2038 22.0729L25.1505 26.1662C25.8971 29.4062 24.1771 30.6595 21.3105 28.9662L17.3238 26.6062C16.6038 26.1795 15.4171 26.1795 14.6838 26.6062L10.6971 28.9662C7.84378 30.6595 6.11045 29.3929 6.85712 26.1662L7.80378 22.0729C7.97712 21.2995 7.67045 20.2195 7.11045 19.6595L3.80378 16.3529C1.85712 14.4062 2.48379 12.4329 5.20379 11.9795L9.45712 11.2729C10.1638 11.1529 11.0171 10.5262 11.3371 9.87287L13.6838 5.17953C14.9638 2.63286 17.0438 2.63286 18.3105 5.17953Z" stroke="#292D32" stroke-linecap="round" stroke-linejoin="round"/>
</svg>
