<svg width="48" height="48" viewBox="0 0 48 48" fill="none" xmlns="http://www.w3.org/2000/svg">
<path d="M26.5999 16.2202L29.2399 21.5002C29.5999 22.2202 30.5599 22.9402 31.3599 23.0602L36.1399 23.8602C39.1999 24.3802 39.9199 26.5802 37.7199 28.7802L33.9999 32.5002C33.3799 33.1202 33.0199 34.3402 33.2199 35.2202L34.28 39.8402C35.12 43.4802 33.18 44.9002 29.96 43.0002L25.4799 40.3402C24.6599 39.8602 23.34 39.8602 22.52 40.3402L18.0399 43.0002C14.8199 44.9002 12.8799 43.4802 13.7199 39.8402L14.78 35.2202C14.98 34.3602 14.6199 33.1402 13.9999 32.5002L10.28 28.7802C8.07996 26.5802 8.79992 24.3602 11.8599 23.8602L16.6399 23.0602C17.4399 22.9202 18.3999 22.2202 18.7599 21.5002L21.4 16.2202C22.82 13.3602 25.1799 13.3602 26.5999 16.2202Z" stroke="#292D32" stroke-width="1.5" stroke-linecap="round" stroke-linejoin="round"/>
<path d="M12 18V4" stroke="#292D32" stroke-width="1.5" stroke-linecap="round" stroke-linejoin="round"/>
<path d="M36 18V4" stroke="#292D32" stroke-width="1.5" stroke-linecap="round" stroke-linejoin="round"/>
<path d="M24 8V4" stroke="#292D32" stroke-width="1.5" stroke-linecap="round" stroke-linejoin="round"/>
</svg>
