<svg width="60" height="60" viewBox="0 0 60 60"  xmlns="http://www.w3.org/2000/svg" >
<path d="M18.7496 38.1246C18.2746 38.1246 17.7996 37.9496 17.4246 37.5746C16.6996 36.8496 16.6996 35.6496 17.4246 34.9246L25.4246 26.9246C25.8246 26.5246 26.3496 26.3246 26.9246 26.3746C27.4746 26.4246 27.9746 26.7246 28.2996 27.1996L31.0246 31.2996L39.8996 22.4246C40.6246 21.6996 41.8246 21.6996 42.5496 22.4246C43.2746 23.1496 43.2746 24.3496 42.5496 25.0746L32.0496 35.5746C31.6496 35.9746 31.1246 36.1746 30.5496 36.1246C29.9996 36.0746 29.4996 35.7746 29.1746 35.2996L26.4496 31.1996L20.0746 37.5746C19.6996 37.9496 19.2246 38.1246 18.7496 38.1246Z" fill="#008236"/>
<path d="M41.25 30.625C40.225 30.625 39.375 29.775 39.375 28.75V25.625H36.25C35.225 25.625 34.375 24.775 34.375 23.75C34.375 22.725 35.225 21.875 36.25 21.875H41.25C42.275 21.875 43.125 22.725 43.125 23.75V28.75C43.125 29.775 42.275 30.625 41.25 30.625Z" fill="#008236"/>
<path   d="M37.5 56.875H22.5C8.925 56.875 3.125 51.075 3.125 37.5V22.5C3.125 8.925 8.925 3.125 22.5 3.125H37.5C51.075 3.125 56.875 8.925 56.875 22.5V37.5C56.875 51.075 51.075 56.875 37.5 56.875ZM22.5 6.875C10.975 6.875 6.875 10.975 6.875 22.5V37.5C6.875 49.025 10.975 53.125 22.5 53.125H37.5C49.025 53.125 53.125 49.025 53.125 37.5V22.5C53.125 10.975 49.025 6.875 37.5 6.875H22.5Z" fill="#008236"/>
</svg>
