<svg width="60" height="60" viewBox="0 0 60 60" fill="none" xmlns="http://www.w3.org/2000/svg">
<path d="M45.1 33.875C44.05 34.9 43.45 36.375 43.6 37.95C43.825 40.65 46.3 42.625 49 42.625H53.75V45.6C53.75 50.775 49.525 55 44.35 55H15.65C10.475 55 6.25 50.775 6.25 45.6V28.775C6.25 23.6 10.475 19.375 15.65 19.375H44.35C49.525 19.375 53.75 23.6 53.75 28.775V32.375H48.7C47.3 32.375 46.025 32.925 45.1 33.875Z" stroke="#292D32" stroke-width="1.5" stroke-linecap="round" stroke-linejoin="round"/>
<path d="M6.25 31.0252V19.6004C6.25 16.6254 8.075 13.9753 10.85 12.9253L30.7 5.42527C33.8 4.25027 37.125 6.55035 37.125 9.87535V19.3753" stroke="#292D32" stroke-width="1.5" stroke-linecap="round" stroke-linejoin="round"/>
<path d="M56.397 34.9249V40.075C56.397 41.45 55.297 42.5749 53.897 42.6249H48.997C46.297 42.6249 43.822 40.65 43.597 37.95C43.447 36.375 44.047 34.8999 45.097 33.8749C46.022 32.9249 47.297 32.375 48.697 32.375H53.897C55.297 32.425 56.397 33.5499 56.397 34.9249Z" stroke="#292D32" stroke-width="1.5" stroke-linecap="round" stroke-linejoin="round"/>
<path d="M17.5 30H35" stroke="#292D32" stroke-width="1.5" stroke-linecap="round" stroke-linejoin="round"/>
</svg>
