<svg xmlns="http://www.w3.org/2000/svg" width="91" height="30" viewBox="0 0 91 30" fill="none">
<path d="M31.2165 0V10.8604H32.8084L35.7677 18.8932L38.7511 10.8604H42.1762L37.2823 22.7852H34.2072L31.2165 15.4974V30H0.5V0H31.2165ZM53.5511 10.587C57.2092 10.587 58.468 12.863 58.5609 14.6157H55.3687C55.2987 13.8649 54.7158 13.1813 53.5282 13.1813C52.4541 13.1813 51.8506 13.6822 51.8506 14.3423C51.8506 16.3449 58.608 14.3423 58.608 19.235C58.608 21.3744 56.7434 23.0575 53.4353 23.0575C49.6131 23.0575 48.3084 21.1469 48.1455 18.9156H51.5006C51.5477 19.7124 52.1536 20.4632 53.5282 20.4632C54.7858 20.4632 55.4387 20.0306 55.4387 19.3718C55.4387 17.3692 48.6584 19.2574 48.6584 14.5238C48.6584 12.3621 50.546 10.587 53.5511 10.587ZM71.4469 10.587C75.362 10.587 77.8554 13.4312 77.8554 16.8223C77.8554 20.2133 75.3608 23.0575 71.4469 23.0575C67.5329 23.0575 65.0395 20.2122 65.0395 16.8223C65.0395 13.4323 67.5329 10.587 71.4469 10.587ZM86.0031 10.587C88.9395 10.587 90.5 12.4988 90.5 15.343V22.7864H87.1919V15.7084C87.1919 14.3211 86.5861 13.3652 85.1173 13.3652C83.5097 13.3652 82.6251 14.3647 82.6251 15.9583V22.7852H79.3158V10.8604H82.368V12.3173C82.928 11.2942 84.1856 10.587 86.0031 10.587ZM46.5355 10.8604V22.7852H43.2262V10.8604H46.5355ZM63.59 10.8604V22.7852H60.2807V10.8604H63.59ZM71.4469 13.4323C69.6981 13.4323 68.3488 14.6829 68.3488 16.8223C68.3488 18.9616 69.7005 20.2133 71.4469 20.2133C73.1981 20.2133 74.5462 18.9604 74.5462 16.8223C74.5462 14.6841 73.1956 13.4323 71.4469 13.4323Z" fill="#000"/>
<path d="M11.2531 9.44509C12.2244 9.43406 13.0038 8.65801 12.9963 7.7093C12.9888 6.76058 12.1972 5.99639 11.2258 6.00001C10.2544 6.00366 9.46882 6.77375 9.46875 7.72249C9.47034 8.18236 9.6595 8.62264 9.99437 8.94593C10.3292 9.26922 10.7822 9.44886 11.2531 9.44509Z" fill="white"/>
<path d="M7.54061 18.6708C7.43931 19.0958 7.38631 19.5305 7.38257 19.9669C7.38257 21.4845 8.22707 22.4919 10.0162 22.4919C11.5013 22.4919 12.7054 21.6306 13.5716 20.239L13.0432 22.3139H15.9917L17.6807 15.7158C18.0993 14.0391 18.9161 13.1672 20.1539 13.1672C21.1275 13.1672 21.7331 13.7563 21.7331 14.7355C21.7376 15.0489 21.6933 15.3612 21.6016 15.6616L20.733 18.705C20.6091 19.1227 20.5469 19.5555 20.5484 19.9904C20.5484 21.4314 21.417 22.4848 23.2339 22.4848C24.7878 22.4848 26.0256 21.508 26.7096 19.168L25.5515 18.7309C24.9724 20.2991 24.4657 20.5819 24.0772 20.5819C23.6887 20.5819 23.474 20.3251 23.474 19.8113C23.4854 19.5413 23.5295 19.2735 23.6055 19.0137L24.45 16.0575C24.6401 15.4494 24.7381 14.8174 24.7407 14.1817C24.7407 11.9701 23.3714 10.8154 21.7114 10.8154C20.1587 10.8154 18.5747 12.1846 17.7881 13.6244L18.3684 11.0393H13.8599L13.2277 13.3168H15.3354L14.0373 18.3892C13.019 20.6008 11.1418 20.6361 10.9126 20.5855C10.5265 20.5006 10.2804 20.3569 10.2804 19.8679C10.2922 19.4692 10.3542 19.0735 10.465 18.6897L12.4399 11.0381H7.43686L6.80469 13.3157H8.88458L7.54061 18.6708Z" fill="white"/>
</svg>