<svg width="50" height="50" viewBox="0 0 50 50" fill="none" xmlns="http://www.w3.org/2000/svg">
<path fill-rule="evenodd" clip-rule="evenodd" d="M32.0833 4.16699C32.5 6.45866 31.4583 8.75033 30.2083 10.417C28.9583 12.0837 26.6666 13.542 24.375 13.3337C23.9583 11.042 25 8.95866 26.25 7.29199C27.7083 5.62533 30 4.37533 32.0833 4.16699ZM38.75 40.417C39.7916 38.7503 40.4166 37.7087 41.25 35.8337C34.7916 33.3337 33.75 24.167 40.2083 20.8337C38.3333 18.3337 35.625 17.0837 32.9166 17.0837C31.0416 17.0837 29.7916 17.5003 28.5416 17.917C27.5 18.3337 26.6666 18.542 25.625 18.542C24.375 18.542 23.5416 18.1253 22.2916 17.7087C21.0416 17.292 19.7916 16.8753 18.3333 16.8753C15.4166 16.8753 12.2916 18.542 10.4166 21.667C7.7083 25.8337 8.12497 33.9587 12.5 40.6253C14.375 43.1253 16.4583 45.8337 19.1666 45.8337C20.4166 45.8337 21.0416 45.417 21.875 45.2087C22.9166 44.792 23.9583 44.3753 25.625 44.3753C27.5 44.3753 28.3333 44.792 29.375 45.2087C30.2083 45.6253 30.8333 45.8337 32.0833 45.8337C35 45.8337 37.0833 42.7087 38.75 40.417Z" stroke="#17191C" stroke-width="1.5" stroke-miterlimit="10" stroke-linecap="round" stroke-linejoin="round"/>
</svg>
