<svg width="48" height="48" viewBox="0 0 48 48" fill="none" xmlns="http://www.w3.org/2000/svg">
<path d="M24.0016 0.570312C11.0609 0.570312 0.570312 11.0609 0.570312 24.0016C0.570312 36.9422 11.0609 47.4328 24.0016 47.4328C36.9422 47.4328 47.4328 36.9422 47.4328 24.0016C47.4156 11.0687 36.9344 0.589063 24.0016 0.570312ZM2.93594 24.0016C2.93594 23.9969 2.93594 23.9906 2.93594 23.9844C2.93594 20.8859 3.60781 17.9453 4.81563 15.2984L4.7625 15.4297L14.8062 42.9594C7.72344 39.4625 2.9375 32.2922 2.93594 24.0016ZM24.0016 45.0578C23.9969 45.0578 23.9922 45.0578 23.9875 45.0578C21.8719 45.0578 19.8281 44.7453 17.9016 44.1656L18.0516 44.2047L24.3719 25.8391L30.8453 43.5812C30.9 43.6984 30.95 43.7938 31.0063 43.8859L30.9984 43.8719C28.9188 44.625 26.5203 45.0609 24.0187 45.0609C24.0141 45.0609 24.0094 45.0609 24.0031 45.0609L24.0016 45.0578ZM26.9062 14.1C28.1703 14.0422 29.3125 13.8953 29.3125 13.8953C29.7578 13.8484 30.1031 13.4734 30.1031 13.0203C30.1031 12.5344 29.7094 12.1406 29.2219 12.1406C29.2078 12.1406 29.1937 12.1406 29.1797 12.1422H29.1813C29.1813 12.1422 25.7547 12.4063 23.5578 12.4063C21.4797 12.4063 17.9937 12.1141 17.9937 12.1141C17.9719 12.1125 17.9469 12.1109 17.9203 12.1109C17.4422 12.1109 17.0531 12.4984 17.0531 12.9781C17.0531 13.4312 17.4 13.8031 17.8438 13.8422H17.8469C17.8469 13.8422 18.9016 13.9609 20.0438 14.0172L23.3234 23.0094L18.6953 36.8328L11.0234 14.0469C12.2906 13.9891 13.4328 13.8516 13.4328 13.8516C13.8797 13.8078 14.2266 13.4328 14.2266 12.9781C14.2266 12.4937 13.8344 12.1016 13.35 12.1016C13.3344 12.1016 13.3203 12.1016 13.3047 12.1031C13.3047 12.1031 9.89688 12.3719 7.69531 12.3719C7.30469 12.3719 6.84063 12.3563 6.34844 12.3422C10.2359 6.65313 16.6859 2.9625 23.9984 2.94688H24.0016C24.0109 2.94688 24.0234 2.94688 24.0344 2.94688C29.5156 2.94688 34.5047 5.05 38.2422 8.49219L38.2281 8.47812C38.1391 8.47187 38.05 8.46094 37.9531 8.46094C35.9859 8.52031 34.4141 10.1297 34.4141 12.1063C34.4141 12.1391 34.4141 12.1703 34.4156 12.2031V12.1984C34.6516 14.0922 35.3938 15.7781 36.5 17.1594L36.4844 17.1406C37.5484 18.7875 38.1922 20.7922 38.2219 22.9453V22.9531C37.9813 25.4578 37.4141 27.7594 36.5594 29.9172L36.6188 29.7453L34.5203 36.7453L26.9047 14.0766L26.9062 14.1ZM42.4906 13.8969C44.1109 16.8125 45.0641 20.2906 45.0641 23.9906C45.0641 31.725 40.9 38.4859 34.6906 42.1547L34.5922 42.2078L41.0266 23.6063C42.0031 21.3828 42.5875 18.7953 42.6281 16.0766V16.0609C42.6281 16.0469 42.6281 16.0312 42.6281 16.0156C42.6281 15.2672 42.5781 14.5313 42.4828 13.8094L42.4922 13.8938L42.4906 13.8969Z" fill="#17191C"/>
</svg>
